<?xml version="1.0" standalone="no"?>
<!DOCTYPE svg PUBLIC "-//W3C//DTD SVG 20010904//EN"
 "http://www.w3.org/TR/2001/REC-SVG-20010904/DTD/svg10.dtd">
<svg version="1.0" xmlns="http://www.w3.org/2000/svg"
 width="1000.000000pt" height="1080.000000pt" viewBox="0 0 1000.000000 1080.000000"
 preserveAspectRatio="xMidYMid meet">
<metadata>
Created by potrace 1.16, written by Peter Selinger 2001-2019
</metadata>
<g transform="translate(0.000000,1080.000000) scale(0.100000,-0.100000)"
fill="#000000" stroke="none">
<path d="M6336 9903 c-36 -70 -64 -128 -63 -129 3 -2 270 -138 279 -142 9 -4
128 232 128 253 0 13 -244 145 -269 145 -6 0 -39 -57 -75 -127z"/>
<path d="M6054 9786 c-19 -14 -19 -15 5 -40 20 -21 23 -32 18 -66 -11 -81 -94
-184 -171 -213 -22 -9 22 -37 226 -141 l206 -107 6 38 c3 21 8 76 12 123 6 79
9 87 41 119 30 30 38 33 75 28 25 -3 51 -15 67 -31 29 -30 31 -54 18 -221 l-8
-100 71 134 c47 88 70 143 68 160 -3 23 -34 42 -298 178 -162 83 -300 152
-306 152 -5 1 -19 -5 -30 -13z"/>
<path d="M5630 9499 c-206 -104 -861 -435 -1455 -734 -1874 -944 -2088 -1053
-2097 -1069 -14 -24 8 -56 39 -56 14 0 256 116 537 259 281 142 930 469 1441
726 1268 638 1837 926 1854 939 31 24 83 126 64 126 -4 0 -177 -86 -383 -191z"/>
<path d="M1370 9589 c-462 -53 -691 -245 -666 -559 8 -109 39 -209 105 -345
359 -733 1547 -1722 3113 -2590 280 -156 787 -414 1063 -540 1212 -557 2283
-889 3175 -986 167 -18 531 -16 655 4 534 86 716 356 540 804 -190 482 -851
1160 -1770 1815 -160 114 -418 289 -421 286 -1 -2 54 -218 122 -481 68 -263
124 -490 124 -504 0 -15 -14 -39 -35 -60 -32 -32 -40 -35 -77 -30 -77 10 -72
-4 -240 647 l-155 595 -79 49 c-136 85 -378 226 -381 222 -3 -2 -233 -2669
-233 -2698 0 -3 -12 -20 -26 -37 -48 -57 -135 -47 -169 19 -14 26 -12 60 15
372 126 1452 209 2463 203 2469 -19 16 -393 213 -657 345 l-290 144 -40 -38
c-36 -34 -352 -325 -478 -439 -39 -36 -54 -43 -87 -43 -79 0 -129 75 -96 142
9 18 124 132 256 252 131 121 238 221 236 222 -2 2 -288 128 -411 182 l-39 16
-1248 -627 c-1359 -684 -1272 -645 -1333 -587 -39 38 -41 100 -4 137 23 22
336 182 1885 961 238 119 433 219 433 222 0 7 -330 132 -562 212 -731 251
-1377 404 -1903 448 -141 12 -418 11 -525 -1z"/>
<path d="M6437 9458 c-13 -11 -25 -125 -77 -728 -33 -393 -114 -1340 -180
-2105 -108 -1267 -117 -1392 -103 -1407 19 -21 33 -22 56 -5 14 10 29 153 102
1007 134 1580 234 2750 250 2945 8 99 18 201 21 226 8 65 -27 98 -69 67z"/>
<path d="M673 9318 c-63 -65 -96 -119 -122 -195 -106 -319 98 -791 582 -1341
202 -229 572 -576 887 -828 1195 -960 2936 -1872 4435 -2325 812 -245 1546
-363 2053 -330 280 18 446 56 621 142 174 86 287 218 320 377 19 92 13 102
-21 34 -213 -426 -1090 -475 -2374 -131 -1994 533 -4487 1912 -5704 3156 -605
617 -831 1119 -649 1441 16 28 28 52 26 52 -1 0 -26 -24 -54 -52z"/>
<path d="M5305 8749 c-358 -329 -656 -607 -663 -618 -10 -15 -11 -25 -2 -40
25 -47 50 -30 318 217 141 130 433 399 647 596 215 198 400 369 413 380 l22
22 -42 21 -43 20 -650 -598z"/>
<path d="M6616 9164 l-28 -54 16 -67 c24 -97 656 -2534 662 -2555 10 -35 84
-29 84 7 0 13 -699 2717 -703 2722 -2 1 -15 -23 -31 -53z"/>
<path d="M915 7905 c10 -82 63 -269 105 -375 299 -749 1065 -1606 2015 -2252
1049 -714 2251 -1161 3440 -1280 174 -17 755 -17 895 0 333 41 561 99 750 190
l95 47 -55 2 c-617 29 -1454 221 -2300 528 -2000 726 -3982 1997 -4923 3155
l-29 35 7 -50z"/>
<path d="M2893 5284 c3 -11 81 -345 173 -744 92 -399 169 -727 170 -728 4 -6
444 292 444 301 0 20 -394 924 -409 935 -14 11 -335 225 -370 246 -10 6 -12 4
-8 -10z"/>
<path d="M3384 4964 c25 -69 351 -816 360 -828 7 -9 311 -65 951 -175 517 -89
949 -163 960 -166 18 -4 25 10 63 118 23 67 42 125 42 128 0 4 -17 10 -37 13
-21 4 -128 29 -238 56 -653 161 -1333 433 -1930 774 -190 108 -180 104 -171
80z"/>
<path d="M3519 3926 c-115 -78 -209 -144 -209 -147 0 -3 100 -21 223 -41 221
-35 222 -35 237 -16 80 107 157 161 270 189 117 30 442 9 665 -43 193 -44 309
-125 376 -264 l34 -71 175 78 c96 43 201 90 234 104 32 14 57 27 55 29 -2 2
-125 25 -274 51 -148 25 -564 97 -923 159 l-654 112 -209 -140z"/>
<path d="M4093 3859 c-192 -32 -301 -150 -311 -335 -3 -51 0 -84 6 -88 6 -3
37 5 69 20 139 62 268 -7 265 -142 -1 -81 -45 -132 -156 -179 -44 -19 -65 -33
-62 -41 3 -8 63 -122 134 -253 71 -132 127 -243 124 -246 -3 -3 -23 -5 -45 -5
-31 0 -38 3 -33 15 5 15 -102 225 -115 225 -4 0 -39 -54 -78 -120 l-72 -120
-576 0 c-350 0 -573 4 -567 9 8 8 359 172 1084 507 135 62 257 124 273 137 22
20 27 33 27 72 0 63 -39 105 -98 105 -30 0 -231 -89 -923 -412 l-884 -413
-720 -3 c-556 -2 -721 -5 -727 -15 -4 -6 -8 -247 -8 -533 0 -427 2 -524 14
-533 10 -8 875 -10 3287 -9 l3274 3 0 540 0 540 -598 3 -598 2 -495 345 c-272
190 -497 345 -499 345 -2 0 -11 -21 -19 -47 -9 -27 -27 -67 -41 -91 -23 -41
-24 -45 -8 -66 9 -12 164 -125 345 -250 180 -125 328 -230 328 -232 0 -2 -94
-4 -210 -4 l-210 0 -267 403 c-148 221 -282 417 -299 435 -64 65 -164 28 -164
-60 0 -34 29 -82 245 -403 135 -200 245 -367 245 -370 0 -3 -81 -5 -180 -5
-123 0 -180 3 -180 11 0 6 27 61 60 121 33 61 60 115 60 120 0 5 -70 113 -155
240 -150 223 -155 233 -155 282 0 91 62 156 148 156 83 0 103 -18 224 -198
l111 -165 18 34 c37 68 71 193 72 264 1 60 -3 78 -30 130 -32 62 -107 142
-159 168 -86 43 -233 76 -464 102 -147 16 -226 17 -307 4z m-2788 -1464 l0
-140 -270 0 -270 0 -3 129 c-1 72 0 136 2 143 4 9 66 12 273 10 l268 -2 0
-140z m695 133 c0 -4 -4 -8 -9 -8 -4 0 -139 -61 -298 -135 -160 -74 -298 -135
-307 -135 -14 0 -16 18 -16 146 l0 145 315 -2 c173 -2 315 -7 315 -11z m810
-133 l0 -145 -341 0 -340 0 3 51 3 52 200 92 200 93 138 1 137 2 0 -146z m760
0 l0 -145 -350 0 -350 0 0 138 c0 76 3 142 7 146 4 3 161 6 350 6 l343 -1 0
-144z m210 139 c0 -3 -33 -60 -72 -127 l-73 -121 -3 114 c-1 62 -1 119 1 125
5 10 147 19 147 9z m471 -89 c26 -49 60 -100 74 -112 16 -15 25 -32 25 -53 l0
-30 -240 0 c-132 0 -240 2 -240 4 0 3 39 68 86 145 l85 140 81 -2 81 -2 48
-90z m839 65 c17 -24 20 -44 20 -144 l0 -116 -350 0 -350 0 0 25 c0 20 6 25
35 31 54 10 81 37 136 140 l51 95 219 -1 219 -1 20 -29z m728 0 l42 -32 0
-114 0 -114 -181 2 -182 3 -93 136 c-51 76 -91 139 -88 142 3 2 107 5 232 6
l227 2 43 -31z m800 -117 l3 -143 -26 0 c-17 0 -95 47 -225 138 -110 75 -199
141 -200 145 0 4 100 7 223 5 l222 -3 3 -142z m600 0 l3 -143 -271 0 -270 0 0
145 0 144 268 -2 267 -2 3 -142z m-1043 -134 c5 -5 -45 -9 -123 -9 l-132 0 0
95 0 95 123 -86 c67 -48 126 -90 132 -95z m-5002 -114 c-94 -44 -123 -74 -123
-125 0 -33 28 -78 58 -94 25 -14 11 -15 -160 -16 l-188 0 0 140 0 140 253 -1
252 0 -92 -44z m897 -95 l0 -140 -350 0 -350 0 0 43 0 44 203 96 202 95 148 1
147 1 0 -140z m740 0 l0 -140 -340 0 -340 0 0 140 0 140 340 0 340 0 0 -140z
m760 134 c0 -4 -14 -29 -31 -57 -17 -27 -35 -61 -40 -75 -14 -35 6 -86 44
-117 l32 -25 -352 0 -353 0 0 140 0 140 350 0 c193 0 350 -3 350 -6z m780
-134 l0 -140 -362 0 c-324 1 -360 2 -336 15 16 9 53 59 94 127 37 62 71 119
77 126 7 9 73 12 268 12 l259 0 0 -140z m760 0 l0 -140 -350 0 -350 0 0 140 0
140 350 0 350 0 0 -140z m265 33 c39 -59 84 -122 101 -140 l31 -33 -168 0
-169 0 0 140 0 140 68 0 67 0 70 -107z m485 -33 l0 -140 -139 0 -139 0 29 29
c44 44 40 82 -21 175 l-50 76 160 0 160 0 0 -140z m586 22 c121 -84 170 -124
172 -140 l3 -22 -350 0 -351 0 0 140 0 140 178 0 178 0 170 -118z m774 -22 l0
-140 -217 1 c-120 0 -212 3 -205 6 19 7 42 58 42 91 0 38 -28 72 -100 123 -33
23 -60 46 -60 50 0 5 122 9 270 9 l270 0 0 -140z"/>
<path d="M0 400 l0 -400 5000 0 5000 0 0 400 0 400 -5000 0 -5000 0 0 -400z
m1395 106 c25 -11 33 -19 29 -30 -7 -19 -5 -19 -40 -1 -36 18 -55 19 -78 2
-28 -21 -9 -45 49 -62 87 -25 108 -74 54 -127 -29 -29 -33 -30 -90 -25 -68 6
-72 8 -64 29 5 13 12 14 40 5 50 -15 100 1 100 33 0 16 -8 28 -25 36 -87 40
-105 51 -108 67 -14 70 53 106 133 73z m587 -48 l3 -62 36 32 c20 18 45 32 55
32 14 0 9 -9 -21 -40 l-39 -40 42 -60 c40 -57 41 -60 20 -60 -16 0 -32 14 -53
45 -16 25 -33 45 -37 45 -5 0 -8 -20 -8 -45 0 -38 -3 -45 -20 -45 -19 0 -20 7
-20 130 0 122 1 130 20 130 16 0 19 -8 22 -62z m-1353 -24 c12 -15 21 -40 21
-55 0 -29 0 -29 -65 -29 -72 0 -83 -12 -44 -51 17 -17 30 -20 65 -16 43 4 59
-5 28 -17 -45 -17 -106 3 -123 41 -45 98 56 206 118 127z m456 3 c20 -16 28
-35 32 -69 5 -42 3 -50 -25 -78 -41 -41 -83 -41 -124 0 -28 28 -30 36 -25 78
9 82 84 119 142 69z m622 8 c30 -21 44 -75 32 -120 -25 -88 -143 -88 -168 0
-20 72 20 135 84 135 17 0 40 -7 52 -15z"/>
<path d="M986 424 c-50 -50 -21 -144 44 -144 48 0 80 50 66 104 -13 53 -75 75
-110 40z"/>
</g>
</svg>
